<svg width="466" height="476" viewBox="0 0 466 476" fill="none" xmlns="http://www.w3.org/2000/svg">
<path fill-rule="evenodd" clip-rule="evenodd" d="M31.3063 84.1353C25.1813 88.2873 22.4003 93.5433 22.4433 100.885C22.4783 106.84 24.1633 110.902 28.3243 115.064L30.9613 117.701L26.4043 119.976C19.8753 123.237 13.1023 130.144 10.1863 136.514C8.8013 139.538 7.86331 142.208 8.10131 142.447C8.34031 142.685 12.0993 143.801 16.4543 144.926C32.4703 149.062 54.6843 148.564 70.6183 143.71L76.8633 141.808L73.9273 135.992C70.7643 129.725 63.2673 122.249 57.3153 119.424L53.6783 117.698L56.1613 115.042C60.0553 110.876 61.8733 106.408 61.8733 101C61.8733 94.6823 60.5703 91.2513 56.5623 87.0163C52.3893 82.6073 48.1643 80.8853 41.5183 80.8853C37.0543 80.8853 35.2543 81.4583 31.3063 84.1353ZM34.2933 113.058C24.4363 106.859 26.4873 90.2183 37.5163 86.9133C42.0263 85.5613 43.9463 85.7423 48.4973 87.9453C52.9363 90.0943 56.8733 96.1053 56.8733 100.733C56.8733 104.091 54.4423 109.098 51.4883 111.822C47.8323 115.194 38.7303 115.848 34.2933 113.058ZM18.3063 133.676C22.0033 128.835 26.7583 125.409 32.7553 123.266C37.4703 121.581 47.3643 121.613 52.1753 123.329C54.2663 124.075 57.7173 125.891 59.8453 127.365C63.6943 130.033 69.6253 137.466 68.6683 138.423C67.2273 139.864 50.9883 141.997 41.3053 142.016C30.9003 142.037 18.9833 140.606 16.0903 138.986C15.1393 138.454 15.7183 137.066 18.3063 133.676Z" fill="white"/>
<path fill-rule="evenodd" clip-rule="evenodd" d="M78.7733 1.87627C66.0963 8.57727 63.4433 24.1833 73.3063 34.0463L75.9253 36.6653L70.5533 39.6963C67.5983 41.3643 63.3543 44.8042 61.1213 47.3402C57.1723 51.8272 52.2873 60.6323 53.2263 61.5713C53.4833 61.8283 56.9963 62.9343 61.0333 64.0283C72.5203 67.1433 94.6693 67.6543 106.873 65.0873C112.098 63.9883 117.583 62.6153 119.061 62.0353L121.75 60.9813L120.118 56.8263C117.877 51.1223 110.614 43.3203 104.147 39.6703L98.7663 36.6343L100.826 34.7143C108.596 27.4763 109.274 14.1753 102.254 6.70128C96.1433 0.193281 85.9283 -1.90573 78.7733 1.87627ZM74.9553 12.9533C76.1003 10.9163 78.2373 8.50429 79.7053 7.59429C81.2683 6.62429 84.5163 5.92728 87.5463 5.91228C93.2853 5.88228 97.6443 8.60827 100.409 13.9543C103.909 20.7233 100.709 29.3343 93.3743 32.8853C80.6203 39.0593 67.9743 25.3743 74.9553 12.9533ZM60.8733 57.0433C60.8733 54.1333 72.3093 44.1203 77.5263 42.4623C84.2413 40.3283 94.1763 40.8593 99.9283 43.6583C104.603 45.9333 109.97 50.5883 112.682 54.7203C114.67 57.7483 113.849 58.2483 104.012 60.0013C88.8403 62.7053 60.8733 60.7873 60.8733 57.0433Z" fill="white"/>
<path fill-rule="evenodd" clip-rule="evenodd" d="M126.373 82.3063C122.608 83.9923 117.329 89.5013 115.934 93.2003C113.277 100.247 115.186 109.265 120.549 115.005L122.997 117.624L117.657 120.638C111.101 124.338 105.454 130.44 102.287 137.245L99.8963 142.385L104.134 143.661C114.228 146.701 126.368 148.118 137.873 147.599C149.141 147.09 167.283 143.649 168.423 141.804C169.435 140.167 162.625 128.829 158.519 125.314C156.322 123.433 152.563 120.945 150.167 119.785L145.809 117.676L148.434 115.051C154.577 108.908 156.261 100.81 152.95 93.3253C150.299 87.3333 148.432 85.2133 143.663 82.7793C139.297 80.5503 130.814 80.3183 126.373 82.3063ZM119.873 100.303C119.873 95.8323 123.959 89.7773 128.373 87.7093C137.96 83.2173 148.873 89.9923 148.873 100.434C148.873 105.401 146.167 110.723 142.453 113.058C138.016 115.848 128.914 115.194 125.258 111.822C122.172 108.977 119.873 104.058 119.873 100.303ZM108.155 138.231C107.401 135.97 117.835 126.042 123.178 123.936C130.475 121.06 141.503 121.483 148.25 124.898C153.11 127.358 160.873 135.05 160.873 137.407C160.873 140.394 138.946 143.085 125.123 141.794C114.03 140.759 108.619 139.622 108.155 138.231Z" fill="white"/>
<path fill-rule="evenodd" clip-rule="evenodd" d="M187.248 11.1353C189.343 15.3253 189.373 16.2233 189.373 74.8853C189.373 133.547 189.343 134.445 187.248 138.635L185.124 142.885L211.248 142.868C238.64 142.849 244.854 142.169 255.873 137.979C262.708 135.38 271.341 128.954 276.821 122.385C281.61 116.645 288.09 103.705 289.842 96.3853C293.146 82.5753 292.904 63.8073 289.256 51.0293C284.588 34.6783 273.045 20.0323 259.621 13.4263C248.084 7.74926 242.019 6.92227 211.748 6.90227L185.124 6.88527L187.248 11.1353ZM220.68 115.885L221.026 74.8863L221.373 33.8863H230.163C236.87 33.8853 239.848 34.3423 242.731 35.8133C247.51 38.2503 252.839 44.1173 255.764 50.1603C258.252 55.3003 260.803 67.8163 260.803 74.8853C260.803 81.9543 258.252 94.4703 255.764 99.6103C252.712 105.914 247.24 111.803 242.373 114.019C239.484 115.335 235.916 115.847 229.526 115.863L220.68 115.885Z" fill="white"/>
<path d="M306.248 11.1353C308.343 15.3253 308.373 16.2233 308.373 74.8853C308.373 133.547 308.343 134.445 306.248 138.635L304.124 142.885H324.524H344.924L343.423 139.981C340.476 134.282 339.665 123.297 340.084 94.7663C340.31 79.4573 340.692 66.7453 340.933 66.5173C341.175 66.2893 348.103 82.2523 356.328 101.989C364.553 121.727 371.618 137.54 372.028 137.13C372.439 136.719 379.35 120.643 387.386 101.405C395.422 82.1672 402.222 66.2033 402.495 65.9293C402.769 65.6553 402.854 81.1713 402.683 100.408C402.408 131.463 402.177 135.744 400.623 138.585C399.661 140.346 398.873 142.033 398.873 142.335C398.873 142.638 407.804 142.885 418.719 142.885H438.566L436.752 137.635C435.082 132.802 434.938 127.82 434.938 74.8853C434.938 21.8643 435.08 16.9743 436.759 12.1133L438.581 6.84126L420.532 7.11327L402.483 7.38527L387.78 41.3613C379.694 60.0483 372.694 75.9453 372.225 76.6873C371.633 77.6253 370.209 75.3403 367.563 69.2113C365.467 64.3573 358.513 48.3473 352.109 33.6353L340.466 6.88527H322.295H304.124L306.248 11.1353Z" fill="white"/>
<path fill-rule="evenodd" clip-rule="evenodd" d="M381.704 165.84C373.357 167.37 365.505 169.995 358.848 173.48C333.92 186.53 318.581 213.619 320.158 241.807C320.805 253.369 322.658 260.52 327.595 270.505C347.856 311.482 402.125 323.653 437.606 295.178C470.291 268.946 475.006 222.81 448.265 190.885C439.257 180.132 424.843 170.967 411.373 167.43C404.107 165.522 388.112 164.665 381.704 165.84ZM387.873 202.648V186.266V169.885H393.248C396.204 169.885 400.029 170.166 401.748 170.51C404.792 171.119 404.873 171.277 404.873 176.616C404.873 181.003 404.374 182.689 402.373 185.067C399.067 188.997 399.197 192.363 402.796 195.962C406.526 199.692 410.978 199.871 414.418 196.43C418.09 192.759 417.715 188.415 413.373 184.32C410.366 181.484 409.873 180.376 409.873 176.452C409.873 173.94 410.107 171.885 410.393 171.885C411.933 171.885 424.094 177.383 428.623 180.127L433.873 183.308V195.371V207.434L424.373 212.153L414.873 216.872V222.484C414.873 227.011 414.39 228.671 412.373 231.067C407.404 236.973 410.813 244.885 418.328 244.885C426.806 244.885 429.945 233.153 422.388 229.71C420.263 228.742 419.873 227.89 419.873 224.218V219.872L429.373 215.153L438.873 210.434L438.908 198.909L438.943 187.385L443.158 192.232C449.168 199.144 454.438 208.068 456.929 215.552C458.111 219.105 458.92 222.17 458.726 222.362C458.532 222.554 456.123 222.863 453.373 223.048C449.25 223.326 447.978 222.99 446.123 221.135C442.997 218.009 437.563 218.104 434.328 221.34C429.188 226.479 433.015 235.391 440.274 235.185C444.368 235.069 446.661 233.573 447.952 230.176C448.712 228.177 449.514 227.885 454.241 227.885C460.658 227.885 460.873 228.212 460.873 237.967V244.885H448.558H436.243L431.308 249.873L426.373 254.862L418.158 254.873C410.655 254.884 409.84 254.69 408.745 252.635C405.896 247.287 399.478 246.189 395.328 250.34C391.887 253.78 392.066 258.232 395.796 261.962C399.395 265.561 402.761 265.691 406.691 262.385C409.365 260.135 410.537 259.885 418.421 259.885H427.18L432.467 254.885L437.753 249.885H448.832H459.911L459.257 252.635C456.644 263.625 452.361 272.183 444.404 282.316C442.912 284.216 442.85 284.212 440.58 282.079C438.835 280.44 438.367 279.092 438.663 276.559C439.59 268.619 429.458 264.179 424.243 270.241C421.489 273.442 421.279 275.835 423.391 279.92C425.001 283.032 428.326 284.414 432.354 283.644C434.051 283.32 435.487 283.91 437.049 285.573L439.301 287.969L436.337 290.351C428.333 296.785 415.053 303.193 407.084 304.467L402.873 305.141V298.598V292.055L407.623 287.882C415.478 280.983 416.44 277.901 412.284 272.962C410.313 270.619 408.871 269.885 406.239 269.885C399.054 269.885 395.198 278.408 400.047 283.571L402.222 285.885L400.047 288.199C398.197 290.169 397.873 291.681 397.873 298.336V306.158L388.623 305.631C377.388 304.991 365.831 301.49 357.373 296.163L351.373 292.385L355.469 292.085C358.712 291.848 360.368 290.963 363.422 287.835C368.045 283.1 371.659 282.685 376.055 286.385C381.961 291.354 389.873 287.945 389.873 280.43C389.873 272.071 378.094 268.915 374.7 276.365C373.621 278.735 371.892 279.368 367.662 278.944C366.721 278.85 363.946 280.62 361.496 282.879C357.146 286.888 356.892 286.978 350.745 286.685L344.449 286.385L339.609 280.385C334.504 274.055 329.073 263.985 328.634 260.033C328.386 257.801 328.676 257.68 334.292 257.658L340.21 257.635L342.561 262.26L344.911 266.885H350.498C354.998 266.885 356.662 267.371 359.055 269.385C364.961 274.354 372.873 270.945 372.873 263.43C372.873 255.141 361.1 251.903 357.744 259.269C356.568 261.851 352.535 263.044 349.179 261.802C348.13 261.415 346.439 259.249 345.421 256.991C344.015 253.874 343.003 252.885 341.221 252.885C337.758 252.885 337.914 248.2 341.421 246.867C344.729 245.609 347.214 239.912 345.93 236.534C343.761 230.829 336.535 229.132 332.328 233.34C328.999 236.668 328.976 242.149 332.277 245.209C334.062 246.862 334.547 248.139 334.161 250.161C333.704 252.551 333.179 252.885 329.881 252.885C326.472 252.885 326.065 252.595 325.498 249.76C324.697 245.755 324.684 229.541 325.48 227.467C325.983 226.155 327.996 225.885 337.284 225.885H348.481L351.873 229.385C355.189 232.806 355.444 232.885 363.204 232.885C370.388 232.885 371.364 233.123 373.461 235.385C378.545 240.871 387.873 236.584 387.873 228.761C387.873 227.645 386.558 225.416 384.95 223.808C380.936 219.794 377.477 219.965 373.308 224.385C370.158 227.725 369.693 227.885 363.136 227.885C356.597 227.885 356.102 227.716 352.873 224.385L349.481 220.885H338.177C331.96 220.885 326.873 220.67 326.873 220.408C326.873 220.145 327.997 216.945 329.37 213.297C332.785 204.224 339.755 194.065 347.176 187.346L353.373 181.734L353.66 192.022C353.875 199.691 354.35 202.755 355.529 204.057C356.565 205.202 356.889 206.684 356.47 208.353C355.576 211.917 358.185 216.45 361.871 217.734C369.912 220.538 376.174 211.351 370.843 204.573C369.263 202.565 367.764 201.925 364.093 201.689L359.373 201.385L359.091 190.168L358.808 178.952L363.591 176.53C368.763 173.911 378.124 170.885 381.055 170.885C382.741 170.885 382.875 172.133 382.894 188.135L382.916 205.385L386.794 208.128C390.068 210.443 390.673 211.43 390.673 214.457C390.673 221.892 399.209 225.736 404.559 220.711C410.468 215.159 404.12 204.009 396.628 206.78C394.925 207.41 393.592 207.01 391.127 205.129L387.873 202.648ZM408.982 193.385C405.816 193.385 404.024 190.613 405.803 188.469C408.257 185.513 412.245 187.22 411.71 190.998C411.462 192.754 410.741 193.385 408.982 193.385ZM362.444 212.314C360.488 210.357 360.49 209.966 362.467 207.781C364.271 205.788 366.464 206.253 367.899 208.933C368.603 210.249 368.438 211.177 367.3 212.316C365.328 214.287 364.418 214.287 362.444 212.314ZM394.873 214.885C394.873 214.414 395.58 213.321 396.444 212.456C397.309 211.592 398.402 210.885 398.873 210.885C399.984 210.885 402.873 213.774 402.873 214.885C402.873 215.996 399.984 218.885 398.873 218.885C397.762 218.885 394.873 215.996 394.873 214.885ZM439.039 230.22C436.671 228.728 436.352 225.739 438.402 224.24C442.198 221.464 445.922 226.939 442.289 229.955C441.141 230.907 440.247 230.98 439.039 230.22ZM376.036 229.998C375.85 228.685 376.3 227.23 377.036 226.763C378.995 225.521 380.473 225.698 381.833 227.337C383.92 229.851 382.678 232.385 379.359 232.385C376.973 232.385 376.305 231.906 376.036 229.998ZM418.373 239.385C415.068 239.385 413.831 236.846 415.913 234.337C416.576 233.538 417.683 232.885 418.373 232.885C420.225 232.885 422.089 235.525 421.692 237.587C421.451 238.837 420.439 239.385 418.373 239.385ZM338.332 242.744C335.771 243.247 333.666 240.14 334.947 237.747C336.166 235.469 339.167 235.33 340.943 237.469C342.527 239.378 341.134 242.193 338.332 242.744ZM397.873 256.484C397.873 255.238 398.173 253.918 398.54 253.552C398.906 253.185 400.226 252.885 401.472 252.885C404.36 252.885 405.695 256.492 403.587 258.599C401.48 260.707 397.873 259.372 397.873 256.484ZM361.538 264.719C360.778 263.511 360.851 262.617 361.803 261.469C364.819 257.836 370.294 261.56 367.518 265.356C366.019 267.406 363.03 267.087 361.538 264.719ZM430.373 278.385C427.068 278.385 425.831 275.846 427.913 273.337C428.576 272.538 429.683 271.885 430.373 271.885C432.225 271.885 434.089 274.525 433.692 276.587C433.451 277.837 432.439 278.385 430.373 278.385ZM404.921 281.4C402.906 280.761 402.061 277.031 403.586 275.506C405.1 273.991 409.371 275.372 409.671 277.473C410.055 280.161 407.548 282.234 404.921 281.4ZM378.538 281.719C377.778 280.511 377.851 279.617 378.803 278.469C381.819 274.836 387.294 278.56 384.518 282.356C383.019 284.406 380.03 284.087 378.538 281.719Z" fill="white"/>
<path d="M269.248 179.135C271.343 183.325 271.373 184.223 271.373 242.885C271.373 301.547 271.343 302.445 269.248 306.635L267.124 310.885H287.442H307.761L305.567 306.135C303.409 301.463 303.368 300.508 303.06 248.213C302.747 194.956 303.244 183.856 306.211 177.909L307.72 174.885H287.422H267.124L269.248 179.135Z" fill="white"/>
<path fill-rule="evenodd" clip-rule="evenodd" d="M207.05 174.847C194.243 178.318 187.314 182.394 177.285 192.357C169.373 200.218 167.529 202.743 163.022 211.885C160.176 217.66 156.926 225.985 155.8 230.385C153.083 241.004 152.282 257.876 153.828 271.882C154.962 282.145 159.174 301.378 161.768 308.135L162.823 310.885H181.848C192.312 310.885 200.873 310.496 200.873 310.02C200.873 309.544 200.034 308.082 199.008 306.77C194.135 300.539 187.457 283.769 186.263 274.764L185.615 269.885H204.327H223.038L222.702 287.135C222.426 301.316 222.051 304.963 220.594 307.635L218.822 310.885H239.222H259.622L257.498 306.635C255.414 302.467 255.367 301.249 255.086 243.177L254.798 183.969L251.086 180.907C244.925 175.825 237.814 173.71 225.373 173.261C216.607 172.944 212.885 173.266 207.05 174.847ZM187.961 233.24C192.467 218.451 200.782 208.041 211.373 203.93C214.123 202.863 218.078 201.966 220.163 201.937L223.952 201.885L223.487 210.135C223.231 214.673 222.988 224.122 222.947 231.135L222.873 243.885H204.373C202.825 243.885 201.396 243.89 200.079 243.894C191.019 243.925 187.258 243.937 186.226 242.265C185.494 241.079 186.137 239.044 187.236 235.566L187.237 235.562L187.24 235.554C187.325 235.284 187.413 235.006 187.503 234.719C187.563 234.527 187.625 234.331 187.687 234.131L187.783 233.82C187.842 233.63 187.901 233.437 187.961 233.24Z" fill="white"/>
<path d="M9.24831 179.135C11.3433 183.325 11.3733 184.223 11.3733 242.885C11.3733 301.547 11.3433 302.445 9.24831 306.635L7.12432 310.885H27.4423H47.7613L45.5723 306.135C43.4753 301.583 43.3743 299.977 43.1493 267.635C43.0203 249.073 43.2433 233.891 43.6443 233.899C44.0453 233.906 51.0953 250.112 59.3113 269.911C67.5273 289.71 74.5833 305.566 74.9903 305.147C75.3983 304.728 82.5163 288.185 90.8093 268.385L105.886 232.385L105.63 267.885C105.401 299.503 105.182 303.735 103.623 306.585C102.661 308.346 101.873 310.033 101.873 310.335C101.873 310.638 110.804 310.885 121.719 310.885H141.566L139.752 305.635C138.082 300.802 137.938 295.82 137.938 242.885C137.938 189.864 138.08 184.974 139.759 180.113L141.581 174.841L123.603 175.113L105.626 175.385L90.6713 209.885C82.4463 228.86 75.3983 244.717 75.0083 245.122C74.6183 245.527 72.7013 242.152 70.7473 237.622C68.7933 233.092 61.8593 217.123 55.3383 202.135L43.4823 174.885H25.3033H7.12432L9.24831 179.135Z" fill="white"/>
<path fill-rule="evenodd" clip-rule="evenodd" d="M65.3733 364.233C57.3523 367.546 56.7693 368.224 58.4363 372.309C59.0953 373.926 58.9143 374.107 57.2973 373.448C53.3043 371.819 52.4783 372.441 48.7553 379.885C46.6933 384.01 44.9753 388.083 44.9393 388.936C44.9013 389.828 46.8873 391.465 49.6203 392.793L54.3663 395.099L49.6203 397.511C47.0093 398.838 44.8693 400.252 44.8653 400.654C44.8613 401.056 46.5483 405.122 48.6153 409.689C52.2003 417.61 52.5023 417.968 55.1583 417.457C57.6633 416.975 57.9143 417.176 57.6583 419.459C57.4003 421.758 58.1283 422.318 65.3733 425.392C69.7733 427.259 73.8813 428.809 74.5023 428.836C75.1223 428.863 76.2053 427.498 76.9073 425.802L78.1843 422.72L79.4803 425.802C80.1933 427.498 81.1613 428.885 81.6323 428.885C82.1023 428.885 86.2863 427.342 90.9303 425.456C99.3163 422.05 99.9173 421.399 98.3103 417.461C97.6803 415.916 97.8553 415.67 99.1993 416.211C100.12 416.582 101.542 417.156 102.36 417.487C103.455 417.93 104.902 415.906 107.86 409.79C110.067 405.225 111.873 400.994 111.873 400.387C111.873 399.78 109.737 398.246 107.126 396.977L102.38 394.671L107.179 392.232L107.348 392.146C109.401 391.103 110.66 390.464 111.123 389.459C111.856 387.869 110.6 385.361 107.355 378.887L107.186 378.549C104.47 373.127 103.411 371.855 102.067 372.395C101.61 372.579 101.057 372.803 100.53 373.016C99.9811 373.238 99.4602 373.45 99.1043 373.595C98.1153 373.999 98.0683 373.501 98.8923 371.336C99.4723 369.809 99.5933 368.216 99.1603 367.797C97.5593 366.245 82.5263 360.804 81.2233 361.304C80.4803 361.589 79.8733 362.485 79.8733 363.295C79.8733 365.957 77.8893 366.058 76.8963 363.445C76.3613 362.037 75.3493 360.895 74.6483 360.907C73.9473 360.919 69.7733 362.416 65.3733 364.233ZM62.3713 371.885C61.8053 369.616 62.2383 369.187 67.0603 367.241C69.9823 366.061 72.7953 365.189 73.3113 365.303C73.8263 365.417 74.6743 366.832 75.1953 368.448C77.2763 374.905 79.0423 375.003 81.5243 368.8C82.3853 366.647 83.2113 364.885 83.3593 364.885C83.5083 364.885 85.3713 365.613 87.5013 366.504C89.6313 367.394 92.3703 368.502 93.5883 368.966C95.7253 369.779 95.7493 369.937 94.2763 373.464C91.9263 379.087 92.9683 380.387 97.8343 377.905L101.834 375.864L104.859 381.857L107.884 387.85L101.879 390.882C96.1233 393.787 95.8733 393.828 95.8733 391.85C95.8733 388.993 93.5843 384.889 90.2123 381.699C85.3123 377.063 78.3613 375.616 72.1883 377.949C66.7653 379.998 60.8733 387.222 60.8733 391.823C60.8733 393.816 60.7493 393.805 55.1733 391.339C52.0383 389.952 49.3393 388.684 49.1753 388.52C49.0113 388.356 50.0663 385.467 51.5193 382.1L54.1603 375.978L57.7673 377.522C59.7503 378.372 61.9973 379.323 62.7603 379.635C64.1613 380.21 64.0893 378.776 62.3713 371.885ZM69.2133 384.022C70.6043 382.722 73.2343 381.343 75.0583 380.958C87.9773 378.223 97.7733 393.114 89.7583 403.304C84.9373 409.433 75.3743 410.86 69.9143 406.266C62.1623 399.743 61.8833 390.869 69.2133 384.022ZM75.3603 412.435C84.1953 413.76 93.9273 407.444 95.4353 399.406C95.7983 397.47 96.2853 395.885 96.5183 395.885C96.9443 395.885 107.12 400.904 107.671 401.386C108.242 401.886 102.449 412.885 101.615 412.885C101.152 412.885 99.4053 412.177 97.7333 411.313C96.0613 410.448 94.0483 409.988 93.2603 410.29C92.0253 410.764 92.0383 411.343 93.3503 414.485C94.1883 416.489 94.8733 418.644 94.8733 419.272C94.8733 420.277 85.8923 424.275 83.4563 424.355C82.9523 424.372 82.1043 423.035 81.5723 421.385C80.4913 418.034 79.0303 415.885 77.8333 415.885C77.3963 415.885 76.2653 417.91 75.3203 420.385C74.3753 422.86 73.4673 424.885 73.3033 424.885C73.1393 424.885 70.3153 423.719 67.0283 422.293L61.0523 419.701L62.5313 416.161C64.5703 411.282 63.0983 409.93 58.2593 412.238C56.2613 413.191 54.5353 413.839 54.4253 413.678C54.3153 413.517 53.4113 411.585 52.4163 409.385C51.4213 407.185 50.2083 404.61 49.7203 403.662C48.9923 402.25 49.7323 401.484 53.8193 399.412C56.5623 398.022 59.2153 396.885 59.7153 396.885C60.2143 396.885 60.9093 398.317 61.2593 400.067C62.2563 405.051 69.7093 411.588 75.3603 412.435Z" fill="white"/>
<path fill-rule="evenodd" clip-rule="evenodd" d="M65.3733 350.756C44.7613 356.693 30.8303 375.26 30.7623 396.885C30.7133 412.149 35.9643 423.566 47.8413 434.02L53.8733 439.33V456.051C53.8733 472.196 53.9503 472.825 56.0963 474.328C57.9343 475.616 61.9093 475.885 79.0963 475.885C81.0195 475.885 82.7942 475.894 84.4317 475.902C94.7859 475.954 99.6592 475.978 101.946 473.559C103.98 471.407 103.969 467.323 103.948 459.607C103.944 458.234 103.94 456.747 103.947 455.135L104.022 438.385L109.197 434.329C130.756 417.436 132.723 384.257 113.369 363.966C100.987 350.985 82.3683 345.86 65.3733 350.756ZM38.9003 377.178C44.9873 364.813 58.3163 354.889 71.3733 352.998C78.5593 351.958 85.6133 352.502 92.3043 354.611C112.855 361.091 126.117 382.715 122.766 404.28C121.003 415.631 113.574 427.555 104.283 433.947L99.8733 436.981V443.433V449.885H93.4543H87.0363L89.7773 439.407C92.3433 429.6 92.4453 425.795 90.1033 427.243C89.5563 427.581 87.8743 432.835 86.3653 438.919L83.6203 449.981L78.5443 449.683L73.4683 449.385L70.7033 438.968C67.7953 428.01 66.4173 425.303 65.2703 428.294C64.7213 429.724 66.3013 437.137 69.4993 448.135C69.9473 449.676 69.2223 449.885 63.4403 449.885H56.8733V442.885C56.8733 439.035 56.4393 435.885 55.9103 435.885C55.3803 435.885 52.0833 433.207 48.5843 429.933C33.6313 415.946 29.8793 395.503 38.9003 377.178ZM57.3733 471.385L57.0843 462.635L56.7953 453.885H78.3343H99.8733V462.905V471.925L78.6233 471.655L57.3733 471.385Z" fill="white"/>
<path d="M135.567 400.524C133.847 402.244 136.931 402.885 146.932 402.885C155.991 402.885 157.873 402.627 157.873 401.385C157.873 400.144 156.003 399.885 147.04 399.885C141.081 399.885 135.919 400.173 135.567 400.524Z" fill="white"/>
<path d="M140.38 365.936C131.385 370.812 129.855 372.138 131.82 373.353C133.179 374.192 150.85 364.766 150.863 363.194C150.883 360.736 149.123 361.197 140.38 365.936Z" fill="white"/>
<path d="M111.301 336.465C106.393 345.468 105.63 347.906 107.512 348.574C108.881 349.059 119.226 330.264 118.36 328.864C117.086 326.803 115.83 328.155 111.301 336.465Z" fill="white"/>
<path d="M77.3023 320.21C77.0223 320.939 76.9243 325.776 77.0833 330.96C77.3163 338.542 77.6663 340.385 78.8733 340.385C80.0963 340.385 80.4253 338.398 80.6573 329.635C80.9003 320.426 80.7163 318.885 79.3753 318.885C78.5153 318.885 77.5813 319.481 77.3023 320.21Z" fill="white"/>
<path d="M35.8783 328.135C35.8873 330.044 44.8603 346.885 45.8693 346.885C48.2713 346.885 47.5953 344.093 43.2023 335.873C38.9103 327.841 35.8633 324.621 35.8783 328.135Z" fill="white"/>
<path d="M2.87331 361.148C2.87331 362.397 19.5443 371.885 21.7383 371.885C22.3623 371.885 22.8733 371.247 22.8733 370.467C22.8733 369.025 6.7963 359.885 4.2603 359.885C3.4973 359.885 2.87331 360.453 2.87331 361.148Z" fill="white"/>
<path d="M0.340319 399.939C-1.09268 402.257 1.85431 402.95 11.9603 402.672C20.4223 402.439 22.3733 402.104 22.3733 400.885C22.3733 399.663 20.3953 399.333 11.7023 399.102C4.61932 398.914 0.799319 399.195 0.340319 399.939Z" fill="white"/>
<path fill-rule="evenodd" clip-rule="evenodd" d="M226.373 331.848C214.392 334.429 203.898 340.01 194.687 348.7C183.696 359.067 176.272 371.919 171.662 388.556C169.791 395.309 169.496 398.927 169.518 414.885C169.544 434.445 170.826 443.302 176.175 460.885L178.457 468.385L197.665 468.657C208.229 468.806 216.873 468.669 216.873 468.352C216.873 468.035 215.075 464.795 212.878 461.152C207.317 451.932 201.873 436.607 201.873 430.175V427.885H220.456H239.038L238.702 445.135C238.426 459.316 238.051 462.963 236.594 465.635L234.822 468.885H255.222H275.622L273.498 464.635C271.414 460.466 271.368 459.256 271.093 401.183L270.812 341.981L267.093 338.913C260.786 333.71 253.806 331.643 241.373 331.295C235.323 331.125 228.573 331.374 226.373 331.848ZM203.961 391.24C208.463 376.465 216.751 366.08 227.373 361.906C230.123 360.825 233.948 360.041 235.873 360.163C239.084 360.367 239.361 360.633 239.224 363.385C239.142 365.035 239.029 374.372 238.974 384.135L238.873 401.885H220.373C219.558 401.885 218.777 401.887 218.027 401.889C217.352 401.89 216.703 401.892 216.079 401.894C207.019 401.925 203.258 401.937 202.226 400.265C201.494 399.079 202.137 397.044 203.236 393.566C203.461 392.853 203.706 392.079 203.961 391.24Z" fill="white"/>
<path d="M285.248 337.135C287.343 341.325 287.373 342.223 287.373 400.885C287.373 459.547 287.343 460.445 285.248 464.635L283.124 468.885H303.442H323.761L321.567 464.135C319.41 459.464 319.368 458.5 319.054 406.261C318.733 352.993 319.232 341.881 322.211 335.909L323.72 332.885H303.422H283.124L285.248 337.135Z" fill="white"/>
<path d="M375.548 332.362C359.924 335.623 345.173 345.679 339.115 357.197C336.649 361.887 336.386 363.393 336.38 372.885C336.374 382.115 336.687 384.05 338.967 388.885C344.536 400.69 353.711 406.623 378.373 414.366C386.623 416.957 395.224 420.141 397.486 421.442C404.521 425.49 405.666 432.878 400.074 438.152C396.293 441.719 390.413 443.186 381.763 442.719C371.412 442.162 364.581 438.8 355.649 429.868C351.774 425.993 348.532 422.949 348.446 423.103C346.953 425.789 341.513 433.865 337.682 439.08C332.905 445.585 332.807 445.857 334.242 448.632C336.589 453.171 344.116 459.478 351.803 463.35C381.795 478.453 421.867 469.565 434.288 445.053C439.39 434.984 439.431 420.633 434.386 410.323C429.394 400.118 420.039 394.51 397.097 387.969C381.405 383.495 375.81 381.061 373.439 377.676C371.672 375.152 371.377 369.68 372.86 366.909C375.709 361.585 388.313 358.072 397.983 359.906C404.511 361.144 414.702 365.789 419.872 369.884L423.676 372.897L426.439 368.141C427.959 365.525 431.416 360.087 434.121 356.056C438.856 349.001 438.975 348.655 437.289 346.792C433.741 342.871 424.23 337.425 415.945 334.569C408.676 332.064 405.595 331.583 394.901 331.286C386.633 331.056 380.052 331.422 375.548 332.362Z" fill="white"/>
<path d="M85.5003 78.4143C85.1553 79.3133 84.8733 84.1863 84.8733 89.2443V98.4392L77.8733 105.385C70.8063 112.398 69.4763 115.135 72.5593 116.318C73.7713 116.783 76.2383 114.986 81.3343 109.923L88.4233 102.882L95.3973 109.909C102.444 117.01 104.265 117.805 106.254 114.645C107.179 113.177 106.072 111.619 99.1453 104.645L90.9413 96.3853L90.6573 86.8853C90.3933 78.0693 90.2203 77.3633 88.2503 77.0823C86.9983 76.9033 85.8703 77.4503 85.5003 78.4143Z" fill="white"/>
</svg>
